<?xml version="1.0" encoding="UTF-8"?>
<svg xmlns="http://www.w3.org/2000/svg" xmlns:xlink="http://www.w3.org/1999/xlink" version="1.1" preserveAspectRatio="none" x="0px" y="0px" width="102px" height="108px" viewBox="0 0 102 108">
  <defs>
    <g id="Layer0_0_FILL">
      <path fill="#FFFFFF" stroke="none" d=" M 184.1 230.35 Q 188.8 230.05 191.1 228.3 191.45 222.1 189.15 215.95 185.9 216.95 182.35 217.3 L 182.35 230.4 184.1 230.35 Z"></path>
    </g>
    <g id="Layer0_1_FILL">
      <path fill="#FFFFFF" stroke="none" d=" M 188 188.15 Q 191 184.8 191.5 181.75 187.5 177.4 182.35 174.9 L 182.35 193.05 Q 185.85 190.55 188 188.15 Z"></path>
    </g>
    <g id="Layer0_2_FILL">
      <path fill="#FFFFFF" stroke="none" d=" M 199.1 210.45 Q 199.45 207.15 197 203.75 194.8 200.75 191.55 198.95 187.85 196.9 182.35 195.95 L 182.35 212.15 Q 191 213 199.1 210.45 Z"></path>
    </g>
    <g id="Layer0_3_FILL">
      <path fill="#FFFFFF" stroke="none" d=" M 182.35 161.65 L 182.35 167.1 Q 183.45 165.5 184.5 163.5 183.7 162.5 182.35 161.65 Z"></path>
    </g>
    <g id="Layer0_4_FILL">
      <path fill="#FFFFFF" stroke="none" d=" M 152.8 210.7 Q 151.7 221.85 156.55 232.7 161.3 243.35 170.3 250.2 L 178.8 250.2 Q 180.45 245.8 179 240.5 178 237.05 175.45 233.15 173.2 229.6 171.7 228.6 172.75 229.15 175.8 229.75 179.25 230.35 182.35 230.4 L 182.35 217.3 Q 174.75 218.15 166.95 216.5 158.8 214.75 152.8 210.7 Z"></path>
    </g>
    <g id="Layer0_6_FILL">
      <path fill="#FFFFFF" stroke="none" d=" M 178 195.7 Q 179.3 195.25 182.35 193.05 L 182.35 174.9 181.35 174.4 Q 177.2 182.1 169.15 188.3 160.75 194.7 151.95 196.35 157.45 203.1 165.6 207.25 173.45 211.3 182.35 212.15 L 182.35 195.95 Q 179.25 195.45 178 195.7 Z"></path>
    </g>
    <g id="Layer0_8_FILL">
      <path fill="#FFFFFF" stroke="none" d=" M 171.05 160.7 Q 167.6 161.65 163.7 164.2 160.2 166.45 159.15 167.95 159.8 166.8 160.4 163.1 161.05 158.85 160.85 155.55 160.6 151.05 158.8 148.55 152.5 148.3 146.5 150.55 149 158.95 147.7 168.95 146.3 179.45 141.2 186.85 153.1 188.05 164.45 182.55 175.7 177.1 182.35 167.1 L 182.35 161.65 Q 180.05 160.25 176.75 160.05 173.8 159.9 171.05 160.7 Z"></path>
    </g>
    <g id="Layer0_11_FILL">
      <path fill="#FFFFFF" stroke="none" d=" M 141 140.6 Q 137.65 140.2 134.25 142.7 131.3 144.85 129.45 148.15 127.75 151.25 126.75 155.85 125.9 159.9 126.2 161.7 125.8 160.4 123.65 157.35 121.15 153.9 118.65 151.7 115.15 148.6 112.25 148.2 107.7 152.35 104.95 158.35 112.65 162.5 118.8 170.5 125.2 178.9 126.9 187.75 137 179.45 140.95 166.25 144.9 153.05 141 140.6 Z"></path>
    </g>
    <g id="Layer0_13_FILL">
      <path fill="#FFFFFF" stroke="none" d=" M 91.2 168.65 Q 92.2 172.1 94.75 176.05 97 179.55 98.5 180.55 97.3 179.9 93.6 179.3 89.4 178.65 86.1 178.8 81.4 179.15 79.1 180.85 78.75 187.1 81.05 193.2 89.45 190.7 99.5 192.05 110 193.45 117.4 198.5 118.7 185.5 112.15 173.35 105.55 161.2 94 155.2 91.4 157.25 90.75 161.4 90.2 165 91.2 168.65 Z"></path>
    </g>
    <g id="Layer0_15_FILL">
      <path fill="#FFFFFF" stroke="none" d=" M 118.25 212.8 Q 110 202.7 96.8 198.75 83.55 194.8 71.1 198.7 70.75 202 73.25 205.45 75.4 208.4 78.65 210.2 81.8 211.95 86.35 212.95 90.45 213.8 92.2 213.45 90.9 213.85 87.9 216.05 84.4 218.55 82.2 221.05 79.25 224.35 78.7 227.4 82.8 232 88.85 234.75 93 227.05 101.05 220.9 109.45 214.45 118.25 212.8 Z"></path>
    </g>
    <g id="Layer0_17_FILL">
      <path fill="#FFFFFF" stroke="none" d=" M 123.4 235.6 Q 125.15 227.9 129 222.3 116 221 103.85 227.55 91.75 234.1 85.7 245.65 87.8 248.25 91.95 248.95 95.6 249.5 99.15 248.45 102.6 247.5 106.55 244.95 110 242.7 111.05 241.2 110.6 242.05 110.1 244.6 109.55 247.4 109.35 250.2 L 122.25 250.2 Q 121.7 242.85 123.4 235.6 Z"></path>
    </g>
    <g id="Layer0_18_FILL">
      <path fill="#FFFFFF" stroke="none" d=" M 143.3 221.4 Q 136.9 226.65 132.8 234.3 128.8 241.8 127.7 250.2 L 143.95 250.2 Q 144.15 248.45 144 247.45 144.25 248.3 145.5 250.2 L 164.2 250.2 Q 156.8 245.85 151 238.05 144.9 229.9 143.3 221.4 Z"></path>
    </g>
    <g id="Layer0_20_FILL">
      <path fill="#FFFFFF" stroke="none" d=" M 176.2 254 Q 177.95 252.55 178.8 250.2 L 170.3 250.2 Q 173.05 252.35 176.2 254 Z"></path>
    </g>
    <g id="Layer0_21_FILL">
      <path fill="#FFFFFF" stroke="none" d=" M 109.35 253.6 Q 109.6 258.1 111.4 260.6 117.5 260.95 123.7 258.6 122.55 254.7 122.25 250.25 L 109.35 250.25 Q 109.25 252.5 109.35 253.6 Z"></path>
    </g>
    <g id="Layer0_22_FILL">
      <path fill="#FFFFFF" stroke="none" d=" M 151.55 257.45 Q 155.05 260.55 157.95 260.95 162.5 256.8 165.25 250.85 L 164.2 250.25 145.5 250.25 Q 148.5 254.75 151.55 257.45 Z"></path>
    </g>
    <g id="Layer0_23_FILL">
      <path fill="#FFFFFF" stroke="none" d=" M 129.2 268.55 Q 132.55 268.95 135.95 266.45 138.9 264.3 140.75 261.05 143.2 256.6 143.95 250.25 L 127.7 250.25 Q 126.45 259.8 129.2 268.55 Z"></path>
    </g>
  </defs>
  <g transform="matrix( 0.7806243896484375, 0, 0, 0.7809295654296875, -54.45,-105.75) ">
    <use xlink:href="#Layer0_0_FILL"></use>
  </g>
  <g transform="matrix( 0.7806243896484375, 0, 0, 0.7809295654296875, -54.45,-105.75) ">
    <use xlink:href="#Layer0_1_FILL"></use>
  </g>
  <g transform="matrix( 0.7806243896484375, 0, 0, 0.7809295654296875, -54.45,-105.75) ">
    <use xlink:href="#Layer0_2_FILL"></use>
  </g>
  <g transform="matrix( 0.7806243896484375, 0, 0, 0.7809295654296875, -54.45,-105.75) ">
    <use xlink:href="#Layer0_3_FILL"></use>
  </g>
  <g transform="matrix( 0.7806243896484375, 0, 0, 0.7809295654296875, -54.45,-105.75) ">
    <use xlink:href="#Layer0_4_FILL"></use>
  </g>
  <g transform="matrix( 0.7806243896484375, 0, 0, 0.7809295654296875, -54.45,-105.75) ">
    <use xlink:href="#Layer0_6_FILL"></use>
  </g>
  <g transform="matrix( 0.7806243896484375, 0, 0, 0.7809295654296875, -54.45,-105.75) ">
    <use xlink:href="#Layer0_8_FILL"></use>
  </g>
  <g transform="matrix( 0.7806243896484375, 0, 0, 0.7809295654296875, -54.45,-105.75) ">
    <use xlink:href="#Layer0_11_FILL"></use>
  </g>
  <g transform="matrix( 0.7806243896484375, 0, 0, 0.7809295654296875, -54.45,-105.75) ">
    <use xlink:href="#Layer0_13_FILL"></use>
  </g>
  <g transform="matrix( 0.7806243896484375, 0, 0, 0.7809295654296875, -54.45,-105.75) ">
    <use xlink:href="#Layer0_15_FILL"></use>
  </g>
  <g transform="matrix( 0.7806243896484375, 0, 0, 0.7809295654296875, -54.45,-105.75) ">
    <use xlink:href="#Layer0_17_FILL"></use>
  </g>
  <g transform="matrix( 0.7806243896484375, 0, 0, 0.7809295654296875, -54.45,-105.75) ">
    <use xlink:href="#Layer0_18_FILL"></use>
  </g>
  <g transform="matrix( 0.7806243896484375, 0, 0, 0.7809295654296875, -54.45,-105.75) ">
    <use xlink:href="#Layer0_20_FILL"></use>
  </g>
  <g transform="matrix( 0.7806243896484375, 0, 0, 0.7809295654296875, -54.45,-105.75) ">
    <use xlink:href="#Layer0_21_FILL"></use>
  </g>
  <g transform="matrix( 0.7806243896484375, 0, 0, 0.7809295654296875, -54.45,-105.75) ">
    <use xlink:href="#Layer0_22_FILL"></use>
  </g>
  <g transform="matrix( 0.7806243896484375, 0, 0, 0.7809295654296875, -54.45,-105.75) ">
    <use xlink:href="#Layer0_23_FILL"></use>
  </g>
</svg>
