<?xml version="1.0" encoding="UTF-8"?>
<svg xmlns="http://www.w3.org/2000/svg" xmlns:xlink="http://www.w3.org/1999/xlink" version="1.1" preserveAspectRatio="none" x="0px" y="0px" width="102px" height="108px" viewBox="0 0 102 108">
  <defs>
    <g id="Layer0_0_FILL">
      <path fill="#FFFFFF" stroke="none" d=" M 148.85 97.35 Q 147.45 96.3 145.6 96.75 143.75 97.2 142.5 98.9 140.95 101 141.6 103.3 141.85 104.45 141.5 105.55 141.1 106.65 140.15 107.4 L 139.35 107.95 142.35 107.95 Q 143.5 106.25 145.45 106.1 147.9 105.95 149.35 103.85 150.6 102.2 150.45 100.3 150.3 98.35 148.85 97.35 Z"></path>
    </g>
    <g id="Layer0_1_FILL">
      <path fill="#FFFFFF" stroke="none" d=" M 79.3 96.55 Q 77.45 96.1 76.05 97.15 74.65 98.15 74.5 100.1 74.35 102 75.55 103.65 77.1 105.75 79.45 105.9 81.65 106.05 82.65 107.95 L 85.8 107.95 84.9 107.3 84.65 107.15 Q 83.75 106.4 83.4 105.3 83.05 104.25 83.35 103.1 83.9 100.75 82.4 98.7 81.2 97 79.3 96.55 Z"></path>
    </g>
    <g id="Layer0_2_FILL">
      <path fill="#FFFFFF" stroke="none" d=" M 109.5 86.85 Q 108.25 88.35 108.25 90.4 108.25 92.95 110.1 94.5 111 95.25 111.35 96.4 111.7 97.55 111.35 98.65 109.8 103.9 106.25 107.95 L 118.55 107.95 Q 115.35 104.15 113.65 98.85 L 113.55 98.55 Q 113.3 97.4 113.65 96.35 114 95.25 114.9 94.5 116.7 93 116.7 90.4 116.7 88.35 115.45 86.85 114.25 85.4 112.5 85.4 110.75 85.4 109.5 86.85 Z"></path>
    </g>
    <g id="Layer0_3_FILL">
      <path fill="#FFFFFF" stroke="none" d=" M 163.35 133.45 Q 165.4 134.75 167.85 133.95 169.8 133.3 170.8 131.7 171.85 130.05 171.3 128.35 170.75 126.7 168.95 126 167.2 125.25 165.25 125.9 162.75 126.7 161.9 128.9 161.45 130 160.5 130.7 159.5 131.35 158.35 131.4 149.3 131.65 142.15 125.95 L 142.1 125.85 Q 140.5 122 140.45 117.65 140.4 113.25 141.9 108.9 L 142 108.6 142.35 107.95 139.35 107.95 Q 132.35 112.9 123.85 112.5 L 123.75 112.45 Q 120.95 110.7 118.55 107.95 L 106.25 107.95 Q 104.05 110.45 101.2 112.4 L 101.05 112.4 Q 93.15 113 85.8 107.95 L 82.65 107.95 82.9 108.5 Q 85.95 117.15 82.75 125.6 L 82.65 125.7 Q 79.5 128.35 75.35 129.75 71.2 131.2 66.6 131.1 L 66.3 131.1 Q 65.15 131.05 64.2 130.35 63.25 129.65 62.85 128.6 61.95 126.35 59.5 125.55 57.55 124.9 55.75 125.65 53.95 126.35 53.45 128.05 52.9 129.7 53.9 131.35 54.9 132.95 56.9 133.6 59.4 134.4 61.35 133.15 62.35 132.5 63.55 132.55 64.7 132.55 65.7 133.25 73.15 138.35 75.6 147.15 L 75.6 147.25 Q 74.65 151.25 72.1 154.85 69.55 158.4 65.75 161.05 L 65.5 161.25 Q 64.55 161.85 63.4 161.85 62.25 161.85 61.25 161.25 59.25 159.95 56.8 160.75 54.8 161.4 53.8 163.05 52.8 164.65 53.35 166.35 53.9 168 55.65 168.7 57.45 169.45 59.4 168.8 61.9 168 62.75 165.8 63.15 164.7 64.15 164.05 65.1 163.35 66.3 163.35 75.45 163.1 82.5 168.75 L 82.55 168.9 Q 84.15 172.7 84.15 177.05 84.2 181.4 82.7 185.8 L 82.6 186.1 Q 82.2 187.2 81.25 187.85 80.3 188.55 79.15 188.6 76.85 188.75 75.25 190.85 74.05 192.55 74.2 194.45 74.35 196.35 75.75 197.4 77.2 198.4 79.05 197.95 80.9 197.5 82.1 195.8 83.6 193.7 83.05 191.45 82.75 190.3 83.15 189.2 83.5 188.05 84.45 187.35 91.65 181.8 100.75 182.2 L 100.9 182.25 Q 104.4 184.45 107 187.95 109.6 191.45 110.95 195.85 L 111.05 196.15 Q 111.35 197.3 111 198.4 110.65 199.5 109.75 200.2 107.9 201.75 107.9 204.3 107.9 206.35 109.15 207.85 110.4 209.3 112.15 209.3 113.9 209.3 115.1 207.85 116.35 206.35 116.35 204.3 116.35 201.7 114.55 200.2 113.65 199.45 113.3 198.3 112.95 197.2 113.3 196.05 115.9 187.3 123.45 182.35 L 123.6 182.3 Q 127.7 182 131.85 183.3 136.05 184.65 139.75 187.4 L 140 187.6 Q 140.85 188.3 141.25 189.4 141.6 190.5 141.3 191.6 140.7 194 142.25 196 143.45 197.7 145.3 198.15 147.15 198.6 148.6 197.6 150 196.55 150.15 194.65 150.3 192.75 149.1 191.05 147.5 188.95 145.2 188.8 144 188.75 143.05 188.05 142.15 187.3 141.75 186.2 138.7 177.55 141.9 169.1 L 142 169 Q 145.1 166.35 149.25 164.95 153.4 163.6 158.05 163.65 L 158.35 163.65 Q 160.85 163.8 161.8 166.15 162.7 168.4 165.1 169.15 167.1 169.8 168.85 169.05 170.65 168.35 171.2 166.65 171.75 165 170.7 163.35 169.7 161.75 167.75 161.1 165.25 160.3 163.3 161.55 162.3 162.2 161.1 162.2 159.9 162.15 158.95 161.5 151.45 156.35 149 147.6 L 149.05 147.45 Q 150.05 143.45 152.55 139.9 155.05 136.3 158.85 133.65 L 159.15 133.45 Q 160.1 132.85 161.25 132.85 162.4 132.85 163.35 133.45 M 135.5 130.65 Q 135.1 131.85 134.35 133.4 133.8 134.55 132.45 136.4 131.5 137.7 130.3 138.85 L 130 139.1 Q 127.75 141.05 126.45 141.9 L 124.15 143.7 Q 125.3 143.65 127.75 143.75 129.3 143.7 131.4 143.95 133.4 144.15 135.7 144.9 L 135.75 144.9 138.25 145.95 Q 139.8 146.75 140.9 147.5 139.7 148.35 138.35 149 136.75 149.8 135.05 150.3 133.75 150.75 131.85 151 L 131.45 151.1 Q 128.5 151.35 126.95 151.25 L 124.05 151.35 Q 125 151.95 126.95 153.5 128.7 154.8 129.75 155.8 131.25 157.15 132.7 159.1 L 132.7 159.15 Q 133.7 160.6 134.15 161.45 134.8 162.75 135.35 164.25 134.05 164.25 132.4 164 130.35 163.65 129 163.1 127.25 162.5 125.95 161.8 L 125.6 161.6 Q 123.05 160.1 121.85 159.15 L 119.45 157.5 Q 119.85 158.55 120.55 160.95 121.15 162.8 121.45 164.45 121.9 166.75 121.85 168.85 L 121.85 168.9 Q 121.85 170.45 121.65 171.6 121.55 172.85 121 174.6 119.75 173.6 118.8 172.65 117.55 171.4 116.55 169.9 115.55 168.5 114.85 167.05 L 114.7 166.7 Q 113.5 163.95 113.1 162.5 L 112.15 159.75 Q 111.85 160.85 111 163.15 110.25 165.4 109.65 166.55 108.8 168.5 107.4 170.35 L 107.4 170.4 Q 106.8 171.2 105.65 172.45 104.65 173.55 103.35 174.5 102.95 173.2 102.7 171.6 102.45 170.25 102.45 168.1 102.55 166.35 102.8 164.8 L 102.85 164.4 Q 103.55 161.5 104.05 160.05 L 104.9 157.3 Q 104 158 101.95 159.35 100.5 160.45 98.9 161.35 96.85 162.45 94.85 163.1 L 94.8 163.1 Q 93.5 163.5 92.15 163.75 90.65 164 89.1 164.05 89.75 162.3 90.3 161.35 91 159.9 92.15 158.35 93 157.15 94.35 155.9 L 94.65 155.6 Q 96.9 153.65 98.15 152.8 98.2 152.8 100.5 151.05 96.9 151 96.85 151 94.8 151 93.25 150.8 91.1 150.5 88.9 149.8 87.2 149.15 86.35 148.75 84.8 148 83.75 147.25 84.85 146.45 86.3 145.7 88 144.85 89.55 144.4 91.3 143.9 92.75 143.7 L 93.15 143.65 Q 93.2 143.65 94.85 143.5 96.75 143.4 97.7 143.45 L 100.6 143.4 97.7 141.2 Q 96.35 140.25 94.85 138.9 93.1 137.25 91.95 135.6 L 91.9 135.55 Q 91.15 134.45 90.5 133.25 89.85 132.1 89.25 130.45 90.6 130.45 92.2 130.7 93.75 130.95 95.65 131.6 97.4 132.2 98.65 132.9 L 99.05 133.1 99 133.1 Q 99.05 133.1 102.8 135.6 L 105.15 137.25 104.1 133.8 Q 103.55 132.1 103.15 130.25 102.75 128 102.75 125.85 L 102.75 125.8 Q 102.75 124.8 102.95 123.1 103.2 121.4 103.6 120.15 104.8 121.05 105.85 122.1 106.75 123 108.1 124.8 109.15 126.35 109.75 127.65 L 109.95 128 110.6 129.55 Q 111.25 131.3 111.5 132.25 112.45 134.8 112.45 134.95 L 113.65 131.55 Q 114.1 130.05 114.95 128.15 115.9 126.2 117.2 124.35 L 117.25 124.3 Q 118.45 122.8 119 122.25 119.85 121.35 121.25 120.2 121.75 121.8 121.95 123.1 122.2 125.05 122.15 126.65 122.15 128.25 121.85 129.9 L 121.35 131.95 Q 120.9 133.75 120.55 134.65 L 119.75 137.4 Q 120.3 136.95 121.55 136.1 122.65 135.35 122.7 135.35 124.15 134.25 125.75 133.35 127.65 132.3 129.8 131.6 L 129.85 131.6 Q 131.15 131.2 132.5 130.95 134 130.75 135.5 130.65 Z"></path>
    </g>
  </defs>
  <g transform="matrix( 0.8449554443359375, 0, 0, 0.844635009765625, -43.9,-70.15) ">
    <use xlink:href="#Layer0_0_FILL"></use>
  </g>
  <g transform="matrix( 0.8449554443359375, 0, 0, 0.844635009765625, -43.9,-70.15) ">
    <use xlink:href="#Layer0_1_FILL"></use>
  </g>
  <g transform="matrix( 0.8449554443359375, 0, 0, 0.844635009765625, -43.9,-70.15) ">
    <use xlink:href="#Layer0_2_FILL"></use>
  </g>
  <g transform="matrix( 0.8449554443359375, 0, 0, 0.844635009765625, -43.9,-70.15) ">
    <use xlink:href="#Layer0_3_FILL"></use>
  </g>
</svg>
