<?xml version="1.0" encoding="UTF-8"?>
<svg xmlns="http://www.w3.org/2000/svg" xmlns:xlink="http://www.w3.org/1999/xlink" version="1.1" preserveAspectRatio="none" x="0px" y="0px" width="102px" height="108px" viewBox="0 0 102 108">
  <defs>
    <g id="Layer0_0_FILL">
      <path fill="#FFFFFF" stroke="none" d=" M 200.85 148.75 Q 187.65 163.6 177.15 187.4 168.967578125 205.8861328125 168.4 214.5 167.621484375 208.5244140625 160.95 192.6 151.6 170.2 140.5 155 133.9 145.85 125.8 138.9 117.95 132.1 111.2 129.45 97.05 137.6 86.05 147.25 73.35 158.3 61.65 173.85 97 204.15 119.85 253 143.7 304.05 142.3 351.75 172.95 336.2 198.25 311.2 222.85 286.8 239.9 255.95 256.95 225.15 264.5 191.35 272.25 156.7 269.2 122.6 252.35 116.9 231.8 125.95 214 133.8 200.85 148.75 Z"></path>
    </g>
    <g id="Layer0_1_FILL">
      <path fill="#FFFFFF" stroke="none" d=" M 178.25 4.5 Q 173.95 0 168.35 0 162.75 0 158.45 4.5 154.2 8.95 153.1 15.75 152.6 19.25 152.95 22.2 153.4 26.35 155.6 30.2 156.65 32.05 159.95 36.4 163.4 41 164.3 44.35 165.2 47.8 164.55 51.25 163.95 54.1 161.9 58.7 155.65 71.95 141.95 84.3 126.45 98.25 110.4 101.95 L 110.4 105.85 Q 135.75 118 152.2 140.5 164.55 157.4 168.35 173.85 169 170.75 170.85 165.8 174.5 155.85 180.3 146.5 188.45 133.35 199.75 123.3 213.9 110.65 232.25 103.55 L 232.25 103.1 Q 221.7 101.2 210.25 94.15 200.5 88.15 191.3 79.2 182.65 70.75 177.35 62.25 172 53.65 171.95 48.05 171.95 42.85 176.85 36.4 182.4 29.05 183.4 24.45 184.45 20.3 183.6 15.75 182.5 8.95 178.25 4.5 Z"></path>
    </g>
    <g id="Layer0_2_FILL">
      <path fill="#FFFFFF" stroke="none" d=" M 331.75 220.95 L 331.75 215.45 Q 331.75 202.65 322.7 193.6 313.65 184.55 300.85 184.55 L 30.85 184.55 Q 18.05 184.55 9.05 193.6 0 202.65 0 215.45 L 0 220.95 Q 0 233.75 9.05 242.8 18.05 251.85 30.85 251.85 L 300.85 251.85 Q 313.65 251.85 322.7 242.8 331.75 233.75 331.75 220.95 Z"></path>
    </g>
  </defs>
  <g transform="matrix( 0.3013763427734375, 0, 0, 0.3013763427734375, 1,1) ">
    <use xlink:href="#Layer0_0_FILL"></use>
  </g>
  <g transform="matrix( 0.3013763427734375, 0, 0, 0.3013763427734375, 1,1) ">
    <use xlink:href="#Layer0_1_FILL"></use>
  </g>
  <g transform="matrix( 0.3013763427734375, 0, 0, 0.3013763427734375, 1,1) ">
    <use xlink:href="#Layer0_2_FILL"></use>
  </g>
</svg>
