<?xml version="1.0" encoding="UTF-8"?>
<svg xmlns="http://www.w3.org/2000/svg" xmlns:xlink="http://www.w3.org/1999/xlink" version="1.1" preserveAspectRatio="none" x="0px" y="0px" width="102px" height="108px" viewBox="0 0 102 108">
  <defs>
    <g id="Layer0_0_FILL">
      <path fill="#FFFFFF" stroke="none" d=" M 217.95 73.1 Q 221.8 52.15 217.65 31.25 197.4 24.75 176.1 26.2 158.3 27.4 141.85 34.15 129.75 21.25 113.95 12.65 95.2 2.5 74.05 0 61.6 17.3 56.4 37.95 52.05 55.3 53.4 73 37.35 80.55 24.35 92.85 8.95 107.45 0 126.9 12.55 144.1 30.6 155.4 45.85 165 63 169.1 65.15 186.6 72.9 202.9 82.1 222.1 97.75 236.55 117.95 230.05 134.35 216.25 148.05 204.8 157.4 189.65 174.8 193.05 192.55 190.7 213.7 187.9 232.3 177.45 232.25 156.2 224.25 136.4 217.6 119.85 206.1 106.25 214.65 90.85 217.95 73.1 M 187.15 108.4 Q 184.8 109.9 182.95 111.3 169.5 121.25 161.05 135.85 152.5 150.55 150.4 167.05 L 149.9 172.6 149.8 172.5 149.5 172.3 Q 148.8 171.7 145.45 169.2 131.85 159.6 115.3 155.95 98.8 152.35 82.4 155.5 L 76.9 156.75 77.1 156.25 Q 77.8 154.4 78.8 151.45 83.75 135.5 82.1 118.65 80.35 101.8 72.35 87.2 L 69.5 82.4 69.6 82.4 70 82.45 75.1 82.55 Q 91.8 82.35 107.25 75.55 122.7 68.8 134.15 56.55 135.45 55.25 136.45 54.05 L 137.85 52.35 138 52.85 Q 138.55 55.05 139.45 57.75 144.75 73.5 156.05 86.2 167.3 98.8 182.4 105.9 L 187.55 108.1 187.45 108.2 187.15 108.4 Z"></path>
    </g>
  </defs>
  <g transform="matrix( 0.43048095703125, 0, 0, 0.43035888671875, 1,3) ">
    <use xlink:href="#Layer0_0_FILL"></use>
  </g>
</svg>
